<?xml version="1.0" encoding="UTF-8"?>
<!DOCTYPE svg PUBLIC "-//W3C//DTD SVG 1.1//EN" "http://www.w3.org/Graphics/SVG/1.1/DTD/svg11.dtd">
<svg version="1.1" xmlns="http://www.w3.org/2000/svg" xmlns:xlink="http://www.w3.org/1999/xlink" x="0" y="0" width="793.701" height="680.315" viewBox="0, 0, 793.701, 680.315">
  <g id="outline">
    <path d="M675.146,312.311 L709.161,312.311 L709.161,340.658 L675.146,340.658 L675.146,312.311 z" fill-opacity="0" stroke="#FF4400" stroke-width="1"/>
    <path d="M57.193,312.311 L193.256,312.311 L193.256,340.658 L57.193,340.658 L57.193,312.311 z" fill-opacity="0" stroke="#FF4400" stroke-width="1"/>
    <path d="M618.453,312.311 L652.469,312.311 L652.469,340.658 L618.453,340.658 L618.453,312.311 z" fill-opacity="0" stroke="#FF4400" stroke-width="1"/>
    <path d="M560.982,312.311 L594.998,312.311 L594.998,340.658 L560.982,340.658 L560.982,312.311 z" fill-opacity="0" stroke="#FF4400" stroke-width="1"/>
    <path d="M504.289,312.311 L538.305,312.311 L538.305,340.658 L504.289,340.658 L504.289,312.311 z" fill-opacity="0" stroke="#FF4400" stroke-width="1"/>
    <path d="M447.596,312.311 L481.612,312.311 L481.612,340.658 L447.596,340.658 L447.596,312.311 z" fill-opacity="0" stroke="#FF4400" stroke-width="1"/>
    <path d="M391.134,312.311 L425.15,312.311 L425.15,340.658 L391.134,340.658 L391.134,312.311 z" fill-opacity="0" stroke="#FF4400" stroke-width="1"/>
    <path d="M334.441,312.311 L368.457,312.311 L368.457,340.658 L334.441,340.658 L334.441,312.311 z" fill-opacity="0" stroke="#FF4400" stroke-width="1"/>
    <path d="M277.748,312.311 L311.764,312.311 L311.764,340.658 L277.748,340.658 L277.748,312.311 z" fill-opacity="0" stroke="#FF4400" stroke-width="1"/>
    <path d="M221.055,312.311 L255.071,312.311 L255.071,340.658 L221.055,340.658 L221.055,312.311 z" fill-opacity="0" stroke="#FF4400" stroke-width="1"/>
    <path d="M674.646,368.504 L708.661,368.504 L708.661,379.843 L674.646,379.843 L674.646,368.504 z" fill="#FF4400" fill-opacity="0.3"/>
    <path d="M56.693,368.504 L192.756,368.504 L192.756,379.843 L56.693,379.843 L56.693,368.504 z" fill="#FF4400" fill-opacity="0.3"/>
    <path d="M617.953,368.504 L651.969,368.504 L651.969,379.843 L617.953,379.843 L617.953,368.504 z" fill="#FF4400" fill-opacity="0.3"/>
    <path d="M560.482,368.504 L594.498,368.504 L594.498,379.843 L560.482,379.843 L560.482,368.504 z" fill="#FF4400" fill-opacity="0.3"/>
    <path d="M503.789,368.504 L537.805,368.504 L537.805,379.843 L503.789,379.843 L503.789,368.504 z" fill="#FF4400" fill-opacity="0.3"/>
    <path d="M447.096,368.504 L481.112,368.504 L481.112,379.843 L447.096,379.843 L447.096,368.504 z" fill="#FF4400" fill-opacity="0.3"/>
    <path d="M390.634,368.504 L424.65,368.504 L424.65,379.843 L390.634,379.843 L390.634,368.504 z" fill="#FF4400" fill-opacity="0.3"/>
    <path d="M333.941,368.504 L367.957,368.504 L367.957,379.843 L333.941,379.843 L333.941,368.504 z" fill="#FF4400" fill-opacity="0.3"/>
    <path d="M277.248,368.504 L311.264,368.504 L311.264,379.843 L277.248,379.843 L277.248,368.504 z" fill="#FF4400" fill-opacity="0.3"/>
    <path d="M220.555,368.504 L254.571,368.504 L254.571,379.843 L220.555,379.843 L220.555,368.504 z" fill="#FF4400" fill-opacity="0.3"/>
  </g>
</svg>
