<?xml version="1.0" encoding="UTF-8"?>
<!DOCTYPE svg PUBLIC "-//W3C//DTD SVG 1.1//EN" "http://www.w3.org/Graphics/SVG/1.1/DTD/svg11.dtd">
<svg version="1.1" xmlns="http://www.w3.org/2000/svg" xmlns:xlink="http://www.w3.org/1999/xlink" x="0" y="0" width="350" height="300" viewBox="0, 0, 350, 300">
  <g id="init_raster" display="none">
    <path d="M50.5,0.5 L50.5,300.5" fill-opacity="0" stroke="#4F0A9D" stroke-width="1"/>
    <path d="M150.5,0.5 L150.5,300.5" fill-opacity="0" stroke="#4F0A9D" stroke-width="1"/>
    <path d="M100.5,0.5 L100.5,300.5" fill-opacity="0" stroke="#4F0A9D" stroke-width="1"/>
    <path d="M200.5,0.5 L200.5,300.5" fill-opacity="0" stroke="#4F0A9D" stroke-width="1"/>
    <path d="M300.5,0.5 L300.5,300.5" fill-opacity="0" stroke="#4F0A9D" stroke-width="1"/>
    <path d="M250.5,0.5 L250.5,300.5" fill-opacity="0" stroke="#4F0A9D" stroke-width="1"/>
    <path d="M0.5,50.5 L350.5,50.5" fill-opacity="0" stroke="#4F0A9D" stroke-width="1"/>
    <path d="M0.5,100.5 L350.5,100.5" fill-opacity="0" stroke="#4F0A9D" stroke-width="1"/>
    <path d="M0.5,150.5 L350.5,150.5" fill-opacity="0" stroke="#4F0A9D" stroke-width="1"/>
    <path d="M0.5,200.5 L350.5,200.5" fill-opacity="0" stroke="#4F0A9D" stroke-width="1"/>
    <path d="M0.5,250.5 L350.5,250.5" fill-opacity="0" stroke="#4F0A9D" stroke-width="1"/>
    <path d="M0.5,0.5 L350.5,0.5 L350.5,300.5 L0.5,300.5 L0.5,0.5 z" fill-opacity="0" stroke="#4F0A9D" stroke-width="1"/>
  </g>
  <g id="inhoud">
    <path d="M155.48,117.823 L185.48,117.823 L185.48,222.823 L155.48,222.823 L155.48,117.823 z" fill-opacity="0" stroke="#B4B4B4" stroke-width="1"/>
    <path d="M44.923,222.823 L40.5,141.871 L67.357,82.626 L131.341,45.5 L216.653,51.029 L280.637,96.055 L294.066,152.93 L289.327,222.823" fill-opacity="0" stroke="#B4B4B4" stroke-width="1"/>
    <path d="M155.48,167.892 L42.105,167.892" fill-opacity="0" stroke="#B4B4B4" stroke-width="1"/>
    <path d="M185.48,136.934 L289.618,136.934" fill-opacity="0" stroke="#B4B4B4" stroke-width="1"/>
    <path d="M155.48,117.823 L51.814,117.823" fill-opacity="0" stroke="#B4B4B4" stroke-width="1"/>
    <path d="M185.48,201.945 L290.517,201.945" fill-opacity="0" stroke="#B4B4B4" stroke-width="1"/>
    <path d="M161.5,218.666 L167.5,218.666" fill-opacity="0" stroke="#FF7304" stroke-width="1.5"/>
    <path d="M173.5,209.786 L179.5,209.786" fill-opacity="0" stroke="#FF7304" stroke-width="1.5"/>
    <path d="M178.5,206.249 L184.5,206.249" fill-opacity="0" stroke="#FF7304" stroke-width="1.5"/>
    <path d="M178.5,194.523 L184.5,194.523" fill-opacity="0" stroke="#FF7304" stroke-width="1.5"/>
    <path d="M172.5,189.706 L178.5,189.706" fill-opacity="0" stroke="#FF7304" stroke-width="1.5"/>
    <path d="M161.283,178.54 L167.283,178.54" fill-opacity="0" stroke="#FF7304" stroke-width="1.5"/>
    <path d="M156.729,173.351 L162.729,173.351" fill-opacity="0" stroke="#FF7304" stroke-width="1.5"/>
    <path d="M157.729,160.951 L163.729,160.951" fill-opacity="0" stroke="#FF7304" stroke-width="1.5"/>
    <path d="M163.283,156.46 L169.283,156.46" fill-opacity="0" stroke="#FF7304" stroke-width="1.5"/>
    <path d="M174.5,146.945 L180.5,146.945" fill-opacity="0" stroke="#FF7304" stroke-width="1.5"/>
    <path d="M178.5,142.083 L184.5,142.083" fill-opacity="0" stroke="#FF7304" stroke-width="1.5"/>
    <path d="M176.5,131.357 L182.5,131.357" fill-opacity="0" stroke="#FF7304" stroke-width="1.5"/>
    <path d="M170.283,126.842 L176.283,126.842" fill-opacity="0" stroke="#FF7304" stroke-width="1.5"/>
    <path d="M167.5,214.141 L173.5,214.141" fill-opacity="0" stroke="#FF7304" stroke-width="1.5"/>
    <path d="M166.48,183.893 L172.48,183.893" fill-opacity="0" stroke="#FF7304" stroke-width="1.5"/>
    <path d="M169.48,151.5 L175.48,151.5" fill-opacity="0" stroke="#FF7304" stroke-width="1.5"/>
    <path d="M164.283,121.518 L170.283,121.518" fill-opacity="0" stroke="#FF7304" stroke-width="1.5"/>
    <path d="M259.561,162.34 L185.48,162.34" fill-opacity="0" stroke="#B4B4B4" stroke-width="1.5" stroke-opacity="0.4"/>
  </g>
</svg>
