<?xml version="1.0" encoding="UTF-8"?>
<!DOCTYPE svg PUBLIC "-//W3C//DTD SVG 1.1//EN" "http://www.w3.org/Graphics/SVG/1.1/DTD/svg11.dtd">
<svg version="1.1" xmlns="http://www.w3.org/2000/svg" xmlns:xlink="http://www.w3.org/1999/xlink" x="0" y="0" width="350" height="300" viewBox="0, 0, 350, 300">
  <g id="init_raster" display="none">
    <path d="M50.5,0.5 L50.5,300.5" fill-opacity="0" stroke="#4F0A9D" stroke-width="1"/>
    <path d="M150.5,0.5 L150.5,300.5" fill-opacity="0" stroke="#4F0A9D" stroke-width="1"/>
    <path d="M100.5,0.5 L100.5,300.5" fill-opacity="0" stroke="#4F0A9D" stroke-width="1"/>
    <path d="M200.5,0.5 L200.5,300.5" fill-opacity="0" stroke="#4F0A9D" stroke-width="1"/>
    <path d="M300.5,0.5 L300.5,300.5" fill-opacity="0" stroke="#4F0A9D" stroke-width="1"/>
    <path d="M250.5,0.5 L250.5,300.5" fill-opacity="0" stroke="#4F0A9D" stroke-width="1"/>
    <path d="M0.5,50.5 L350.5,50.5" fill-opacity="0" stroke="#4F0A9D" stroke-width="1"/>
    <path d="M0.5,100.5 L350.5,100.5" fill-opacity="0" stroke="#4F0A9D" stroke-width="1"/>
    <path d="M0.5,150.5 L350.5,150.5" fill-opacity="0" stroke="#4F0A9D" stroke-width="1"/>
    <path d="M0.5,200.5 L350.5,200.5" fill-opacity="0" stroke="#4F0A9D" stroke-width="1"/>
    <path d="M0.5,250.5 L350.5,250.5" fill-opacity="0" stroke="#4F0A9D" stroke-width="1"/>
    <path d="M0.5,0.5 L350.5,0.5 L350.5,300.5 L0.5,300.5 L0.5,0.5 z" fill-opacity="0" stroke="#4F0A9D" stroke-width="1"/>
  </g>
  <g id="inhoud">
    <path d="M155.48,117.823 L185.48,117.823 L185.48,222.823 L155.48,222.823 L155.48,117.823 z" fill-opacity="0" stroke="#B4B4B4" stroke-width="1"/>
    <path d="M44.923,222.823 L40.5,141.871 L67.357,82.626 L131.341,45.5 L216.653,51.029 L280.637,96.055 L294.066,152.93 L289.327,222.823" fill-opacity="0" stroke="#B4B4B4" stroke-width="1"/>
    <path d="M155.48,167.892 L42.105,167.892" fill-opacity="0" stroke="#FF7304" stroke-width="1.5"/>
    <path d="M185.48,136.934 L289.618,136.934" fill-opacity="0" stroke="#FF7304" stroke-width="1.5"/>
    <path d="M155.48,117.823 L51.814,117.823" fill-opacity="0" stroke="#FF7304" stroke-width="1.5"/>
    <path d="M185.48,201.945 L290.517,201.945" fill-opacity="0" stroke="#FF7304" stroke-width="1.5"/>
    <path d="M259.561,162.34 L185.48,162.34" fill-opacity="0" stroke="#FF7304" stroke-width="1.5" stroke-opacity="0.4"/>
  </g>
</svg>
