<?xml version="1.0" encoding="UTF-8"?>
<!DOCTYPE svg PUBLIC "-//W3C//DTD SVG 1.1//EN" "http://www.w3.org/Graphics/SVG/1.1/DTD/svg11.dtd">
<svg version="1.1" xmlns="http://www.w3.org/2000/svg" xmlns:xlink="http://www.w3.org/1999/xlink" x="0" y="0" width="300" height="250" viewBox="0, 0, 300, 250">
  <g id="init_raster" display="none">
    <path d="M50.5,0.5 L50.5,250.5" fill-opacity="0" stroke="#739CFF" stroke-width="1"/>
    <path d="M150.5,0.5 L150.5,250.5" fill-opacity="0" stroke="#739CFF" stroke-width="1"/>
    <path d="M100.5,0.5 L100.5,250.5" fill-opacity="0" stroke="#739CFF" stroke-width="1"/>
    <path d="M200.5,0.5 L200.5,250.5" fill-opacity="0" stroke="#739CFF" stroke-width="1"/>
    <path d="M250.5,0.5 L250.5,250.5" fill-opacity="0" stroke="#739CFF" stroke-width="1"/>
    <path d="M0.5,50.5 L300.5,50.5" fill-opacity="0" stroke="#739CFF" stroke-width="1"/>
    <path d="M0.5,100.5 L300.5,100.5" fill-opacity="0" stroke="#739CFF" stroke-width="1"/>
    <path d="M0.5,150.5 L300.5,150.5" fill-opacity="0" stroke="#739CFF" stroke-width="1"/>
    <path d="M0.5,200.5 L300.5,200.5" fill-opacity="0" stroke="#739CFF" stroke-width="1"/>
  </g>
  <g id="natuur" opacity="0.47">
    <path d="M270.5,200.5 L260.5,150.5" fill-opacity="0" stroke="#4A2A03" stroke-width="8"/>
    <path d="M70.5,200.5 L60.5,130.5" fill-opacity="0" stroke="#4A2A03" stroke-width="5"/>
    <g>
      <path d="M42.5,60.5 L68.5,60.5 C75.127,60.5 80.5,65.873 80.5,72.5 L80.5,128.5 C80.5,135.127 75.127,140.5 68.5,140.5 L42.5,140.5 C35.873,140.5 30.5,135.127 30.5,128.5 L30.5,72.5 C30.5,65.873 35.873,60.5 42.5,60.5 z" fill="#136003"/>
      <path d="M42.5,60.5 L68.5,60.5 C75.127,60.5 80.5,65.873 80.5,72.5 L80.5,128.5 C80.5,135.127 75.127,140.5 68.5,140.5 L42.5,140.5 C35.873,140.5 30.5,135.127 30.5,128.5 L30.5,72.5 C30.5,65.873 35.873,60.5 42.5,60.5 z" fill-opacity="0" stroke="#26A159" stroke-width="8"/>
    </g>
    <g>
      <path d="M237.699,171.902 L211.456,161.032 L191.37,140.946 L180.5,114.703 L180.5,86.297 L191.37,60.054 L211.456,39.968 L237.7,29.098 L266.105,29.098 L292.348,39.968 L312.434,60.054 L323.305,86.297 L323.305,114.703 L312.434,140.946 L292.348,161.032 L266.105,171.902 z" fill="#13771D"/>
      <path d="M237.699,171.902 L211.456,161.032 L191.37,140.946 L180.5,114.703 L180.5,86.297 L191.37,60.054 L211.456,39.968 L237.7,29.098 L266.105,29.098 L292.348,39.968 L312.434,60.054 L323.305,86.297 L323.305,114.703 L312.434,140.946 L292.348,161.032 L266.105,171.902 z" fill-opacity="0" stroke="#26A159" stroke-width="8"/>
    </g>
  </g>
  <g id="inner_construction">
    <path d="M50.5,170.5 C60.5,190.5 80.5,200.5 100.5,200.5" fill-opacity="0" stroke="#005066" stroke-width="4"/>
    <path d="M50.5,80.5 C40.5,90.5 20.5,120.5 50.5,170.5" fill-opacity="0" stroke="#005066" stroke-width="4"/>
    <path d="M40.5,110.5 L40.5,110.5" fill-opacity="0" stroke="#005066" stroke-width="1"/>
    <path d="M40.5,110.5 L40.5,110.5" fill-opacity="0" stroke="#005066" stroke-width="1"/>
    <path d="M50.5,80.5 C80.5,50.5 170.5,40.5 200.5,50.5" fill-opacity="0" stroke="#005066" stroke-width="4"/>
    <path d="M270.5,140.5 C280.5,80.5 240.5,60.5 200.5,50.5" fill-opacity="0" stroke="#005066" stroke-width="4"/>
    <path d="M270.5,140.5 C260.5,180.5 230.5,200.5 200.5,200.5" fill-opacity="0" stroke="#005066" stroke-width="4"/>
    <path d="M100.5,200.5 L200.5,200.5" fill-opacity="0" stroke="#005066" stroke-width="4"/>
    <path d="M150.5,170.5 L50.5,170.5" fill-opacity="0" stroke="#005066" stroke-width="1.5" stroke-opacity="0.75"/>
    <path d="M190.5,140.5 L240.5,140.5" fill-opacity="0" stroke="#005066" stroke-width="2"/>
    <path d="M150.5,110.5 L70.5,110.5" fill-opacity="0" stroke="#005066" stroke-width="1.5" stroke-opacity="0.65"/>
    <g>
      <path d="M150.5,110.5 L190.5,110.5 L190.5,200.5 L150.5,200.5 L150.5,110.5 z" fill="#2F3689" fill-opacity="0.15"/>
      <path d="M150.5,110.5 L190.5,110.5 L190.5,200.5 L150.5,200.5 L150.5,110.5 z" fill-opacity="0" stroke="#005066" stroke-width="2"/>
    </g>
  </g>
  <g id="natuur_2" opacity="0.774">
    <path d="M30.5,200.5 L30.5,160.5" fill-opacity="0" stroke="#4A2A03" stroke-width="10"/>
    <g>
      <path d="M35.5,170.5 C10.647,170.5 -9.5,152.591 -9.5,130.5 C-9.5,108.409 10.647,90.5 35.5,90.5 C60.353,90.5 80.5,108.409 80.5,130.5 C80.5,152.591 60.353,170.5 35.5,170.5 z" fill="#0C2A03"/>
      <path d="M35.5,170.5 C10.647,170.5 -9.5,152.591 -9.5,130.5 C-9.5,108.409 10.647,90.5 35.5,90.5 C60.353,90.5 80.5,108.409 80.5,130.5 C80.5,152.591 60.353,170.5 35.5,170.5 z" fill-opacity="0" stroke="#26A159" stroke-width="8"/>
    </g>
  </g>
</svg>
